# xmcd
#
# Track frame offsets:
#	150
#	53763
#	105598
#	160295
#	217370
#	273415
#
# Disc length: 4332 seconds
#
# Revision: 1
# Processed by: cddbd v1.5.1PL0 Copyright (c) Steve Scherf et al.
# Submitted via: EasyCDDAExtractor 7.0.6.1
#
DISCID=5610ea06
DTITLE=Broucci 2 - Dobrodruzstvi na pasece
DYEAR=1999
DGENRE=
TTITLE0=Jak Skok a Kuk spadli na paseku
TTITLE1=Jak Skoka a Kuka Prekvapila povoden
TTITLE2=Jak Skok a Kuk zachranili musku
TTITLE3=Jak se Skok ztratil
TTITLE4=Jak se Kuk se Skokem sesli pod cervenou muchomurkou
TTITLE5=Jak skok a Kukk nasli poklad
EXTD=
EXTT0=
EXTT1=
EXTT2=
EXTT3=
EXTT4=
EXTT5=
PLAYORDER=
